<svg width="3720" height="3784" viewBox="0 0 3720 3784" fill="none" xmlns="http://www.w3.org/2000/svg">
<path d="M127.646 123.297L0.590332 238.149L133.336 354.69L266.081 471.231L133.336 591.15L0.590332 711.069L131.439 825.92L260.392 940.772L387.448 829.298C455.717 768.495 520.193 717.825 527.779 717.825C535.364 717.825 658.627 822.542 802.751 950.906L1062.55 1182.3L929.807 1300.53L797.062 1418.76L531.571 1182.3L266.081 945.839L133.336 1064.07L0.590332 1182.3L266.081 1418.76L531.571 1655.22L398.826 1773.45L266.081 1891.68L398.826 2009.91L531.571 2128.14L266.081 2364.6L0.590332 2601.06L133.336 2719.29L266.081 2835.83L133.336 2955.75L0.590332 3075.67L133.336 3192.21L266.081 3308.75L398.826 3192.21L531.571 3075.67L662.42 3190.52L795.165 3307.06L929.807 3192.21L1064.45 3075.67L1460.79 3428.67L1859.02 3783.36L2257.26 3428.67L2655.5 3073.98L2788.24 3192.21L2920.99 3308.75L3053.73 3192.21L3186.48 3075.67L3319.22 3192.21L3451.97 3308.75L3584.71 3192.21L3717.46 3075.67L3584.71 2955.75L3451.97 2835.83L3584.71 2719.29L3717.46 2601.06L3451.97 2364.6L3186.48 2128.14L3319.22 2009.91L3451.97 1891.68L3319.22 1773.45L3186.48 1655.22L3451.97 1418.76L3717.46 1182.3L3584.71 1064.07L3451.97 945.839L3186.48 1182.3L2920.99 1418.76L2788.24 1300.53L2655.5 1182.3L2920.99 945.839L3186.48 709.38L3317.32 825.92L3448.17 940.772L3582.82 825.92L3719.35 709.38L3586.61 591.15L3451.97 474.609L3584.71 354.69L3717.46 234.771L3584.71 118.23L3451.97 6.86646e-05L2920.99 472.92L2390 945.839L2257.26 827.609L2124.51 711.069L1991.77 827.609L1859.02 944.15L1726.28 827.609L1593.53 711.069L1460.79 827.609L1328.04 945.839L800.854 476.298C512.608 219.57 271.77 8.44506 266.081 8.44506C260.392 8.44506 197.812 59.115 127.646 123.297ZM1200.99 1778.52L1328.04 1893.37L1195.3 2009.91L1062.55 2126.45L929.807 2009.91L797.062 1893.37L924.118 1778.52C994.283 1714.33 1056.86 1663.66 1062.55 1663.66C1068.24 1663.66 1130.82 1714.33 1200.99 1778.52ZM2793.93 1778.52L2920.99 1893.37L2788.24 2009.91L2655.5 2128.14L2520.85 2008.22L2388.11 1889.99L2507.58 1776.83C2573.95 1714.33 2636.53 1663.66 2646.01 1663.66C2657.39 1663.66 2723.76 1714.33 2793.93 1778.52ZM1997.46 2014.98L2124.51 2129.83L1991.77 2246.37L1859.02 2362.91L1726.28 2246.37L1593.53 2129.83L1720.59 2014.98C1790.75 1950.79 1853.33 1900.12 1859.02 1900.12C1864.71 1900.12 1927.29 1950.79 1997.46 2014.98ZM2130.2 2606.13L2390 2837.52L2257.26 2955.75L2124.51 3072.29L1991.77 2955.75L1859.02 2839.21L1726.28 2955.75L1593.53 3072.29L1460.79 2955.75L1328.04 2837.52L1587.84 2606.13C1731.97 2477.76 1853.33 2373.04 1859.02 2373.04C1864.71 2373.04 1986.08 2477.76 2130.2 2606.13Z" fill="#ea7c11"/>
</svg>
