<svg width="869" height="213" viewBox="0 0 869 213" fill="none" xmlns="http://www.w3.org/2000/svg">
<path d="M6.08159 37.8915L0 43.3795L6.3539 48.9482L12.7078 54.5169L6.3539 60.2471L0 65.9772L6.26313 71.4652L12.4355 76.9532L18.5171 71.6266C21.7848 68.7212 24.871 66.3 25.2341 66.3C25.5971 66.3 31.4972 71.3038 38.3957 77.4374L50.8312 88.4941L44.4773 94.1435L38.1234 99.793L25.4156 88.4941L12.7078 77.1953L6.3539 82.8447L0 88.4941L12.7078 99.793L25.4156 111.092L19.0617 116.741L12.7078 122.391L19.0617 128.04L25.4156 133.689L12.7078 144.988L0 156.287L6.3539 161.937L12.7078 167.505L6.3539 173.235L0 178.965L6.3539 184.534L12.7078 190.103L19.0617 184.534L25.4156 178.965L31.6787 184.453L38.0326 190.022L44.4773 184.534L50.922 178.965L69.8929 195.833L88.9546 212.781L108.016 195.833L127.078 178.885L133.432 184.534L139.786 190.103L146.14 184.534L152.494 178.965L158.848 184.534L165.201 190.103L171.555 184.534L177.909 178.965L171.555 173.235L165.201 167.505L171.555 161.937L177.909 156.287L165.201 144.988L152.494 133.689L158.848 128.04L165.201 122.391L158.848 116.741L152.494 111.092L165.201 99.793L177.909 88.4941L171.555 82.8447L165.201 77.1953L152.494 88.4941L139.786 99.793L133.432 94.1435L127.078 88.4941L139.786 77.1953L152.494 65.8965L158.757 71.4652L165.02 76.9532L171.465 71.4652L178 65.8965L171.646 60.2471L165.201 54.6783L171.555 48.9482L177.909 43.2181L171.555 37.6494L165.201 32L139.786 54.5976L114.37 77.1953L108.016 71.5459L101.662 65.9772L95.3085 71.5459L88.9546 77.1146L82.6007 71.5459L76.2468 65.9772L69.8929 71.5459L63.539 77.1953L38.3049 54.759C24.5079 42.4917 12.9801 32.4035 12.7078 32.4035C12.4355 32.4035 9.44008 34.8247 6.08159 37.8915ZM57.4574 116.983L63.539 122.471L57.1851 128.04L50.8312 133.609L44.4773 128.04L38.1234 122.471L44.205 116.983C47.5635 113.916 50.5589 111.495 50.8312 111.495C51.1035 111.495 54.0989 113.916 57.4574 116.983ZM133.704 116.983L139.786 122.471L133.432 128.04L127.078 133.689L120.633 127.959L114.279 122.31L119.998 116.903C123.175 113.916 126.17 111.495 126.624 111.495C127.169 111.495 130.346 113.916 133.704 116.983ZM95.5808 128.282L101.662 133.77L95.3085 139.339L88.9546 144.908L82.6007 139.339L76.2468 133.77L82.3284 128.282C85.6869 125.215 88.6823 122.794 88.9546 122.794C89.2269 122.794 92.2223 125.215 95.5808 128.282ZM101.935 156.529L114.37 167.586L108.016 173.235L101.662 178.804L95.3085 173.235L88.9546 167.667L82.6007 173.235L76.2468 178.804L69.8929 173.235L63.539 167.586L75.9745 156.529C82.873 150.396 88.6823 145.392 88.9546 145.392C89.2269 145.392 95.0362 150.396 101.935 156.529Z" fill="white"/>
<path d="M267 53H240.8V193H267V53ZM462.467 53H436.867V150.8L362.667 53H335.267V193H360.867V95.2L435.067 193H462.467V53ZM530.386 193H587.186C627.586 193.8 662.186 162 661.586 123.2C662.186 84 627.586 52.2 587.186 53H530.386V193ZM586.386 76.2C599.786 76.2 611.386 80.8 620.786 89.8C630.186 98.8 634.986 109.8 634.986 123C634.986 136.2 630.186 147.2 620.786 156.2C611.386 165.2 599.786 169.6 586.386 169.6H556.586V76.2H586.386ZM752.258 53H726.058V193H752.258V53ZM848.125 53H821.925V193H848.125V53Z" fill="white"/>
</svg>
